<svg width="103" height="126" viewBox="0 0 103 126" fill="none" xmlns="http://www.w3.org/2000/svg">
<path d="M64.3022 57.3896C63.8241 57.7818 63.7555 58.4884 64.1494 58.9645C64.5433 59.4407 65.2528 59.509 65.7309 59.1167C66.209 58.7245 66.2775 58.0179 65.8836 57.5418C65.4897 57.0656 64.7804 56.9973 64.3022 57.3896ZM65.5308 57.8313C65.7644 58.1137 65.7237 58.5327 65.4402 58.7654C65.1566 58.998 64.7358 58.9575 64.5022 58.6751C64.2687 58.3927 64.3093 57.9737 64.5929 57.741C64.8765 57.5083 65.2972 57.5488 65.5308 57.8313Z" fill="#161616"/>
<path d="M74.9826 34.9079L75.9159 33.5227L77.9038 34.851L78.0612 34.7769L80.7786 36.6839L81.1515 36.1344L82.2486 36.8675L83.863 34.4705L82.775 33.7434L82.9513 33.484L80.3691 31.6939L80.3848 31.1624L78.3995 29.8361L79.0434 28.8807L76.1307 26.9347L75.3085 28.1557L69.176 24.4297L54.9073 42.1332L40.6385 24.4297L34.5062 28.1557L33.6836 26.9347L30.7713 28.8807L31.4149 29.8361L29.4299 31.1624L29.4457 31.6939L26.8634 33.484L27.0395 33.7434L25.9513 34.4705L27.566 36.8675L28.6631 36.1344L29.0362 36.6839L31.7534 34.7769L31.9106 34.851L33.8985 33.5227L34.8317 34.9079L37.744 32.9618L37.0069 31.8677L39.6166 30.2086L52.0952 45.6223L49.8368 48.4243L49.1711 47.8783L48.337 47.1939C48.4829 46.8515 48.3938 46.44 48.0912 46.1918L47.6123 45.7989C47.2441 45.4968 46.6977 45.5494 46.3943 45.9161L44.505 48.2003C44.2016 48.567 44.2544 49.1112 44.6227 49.4134L45.1015 49.8062C45.3948 50.0468 45.8007 50.0617 46.1072 49.8729L46.9496 50.564L47.6052 51.1018L46.5267 52.408L45.87 51.8692L45.0359 51.1849C45.1818 50.8425 45.0927 50.431 44.7901 50.1827L44.3112 49.7899C43.943 49.4878 43.3966 49.5404 43.0932 49.9071L41.2039 52.1912C40.9006 52.558 40.9533 53.1022 41.3216 53.4043L41.8005 53.7972C42.0938 54.0377 42.4996 54.0526 42.8062 53.8638L43.6486 54.5549L44.3076 55.0956L44.2649 55.1473C43.5411 55.2701 42.8565 55.6413 42.3541 56.2486C42.1807 56.4582 42.0391 56.6837 41.9287 56.919C36.4326 61.8476 32.183 69.4481 31.6609 70.4029L29.5 70.7736L27.7985 73.1021L28.3576 73.5534L28.0597 73.9138L27.6876 73.6081L26.6288 74.8881L27.0009 75.1938L26.0663 76.3235C25.889 76.5375 25.9199 76.8556 26.1351 77.0325L27.0802 77.8078C27.2955 77.9847 27.6147 77.9534 27.7921 77.7395L28.7266 76.6097L29.0986 76.9147L30.1574 75.6347L29.7854 75.3297L30.0945 74.9557L30.3608 75.1704L32.0684 72.84L32.9051 72.6338L32.8624 73.491L30.8921 75.6068L31.3415 75.9814L31.0337 76.3534L30.6615 76.0484L29.6027 77.3284L29.9748 77.6334L29.0403 78.7632C28.863 78.9778 28.8939 79.2959 29.1091 79.4721L30.0542 80.2481C30.2694 80.4243 30.5887 80.3938 30.766 80.1791L31.7006 79.0494L32.0726 79.3544L33.1314 78.0744L32.7594 77.7694L33.0561 77.4104L33.4216 77.7154L35.3904 75.6061L35.342 73.4227C36.1799 72.7294 42.8423 67.1138 46.6532 60.8219L46.6453 60.8171C46.8633 60.6614 47.0649 60.4758 47.2433 60.2601C47.5757 59.8582 47.7904 59.3981 47.8931 58.9211C48.8536 58.3728 48.9026 56.9002 48.8985 56.5177L54.9072 49.0958L60.9158 56.5177C60.9117 56.9002 60.9608 58.3728 61.9212 58.9211C62.024 59.3981 62.2387 59.8582 62.571 60.2601C62.7494 60.4758 62.9511 60.6614 63.1691 60.8171L63.1611 60.8219C66.9721 67.1138 73.6347 72.7294 74.4726 73.4227L74.4243 75.6061L76.3926 77.7154L76.7583 77.4104L77.0548 77.7694L76.6832 78.0744L77.7418 79.3544L78.1141 79.0494L79.0486 80.1791C79.2256 80.3938 79.5449 80.4243 79.7604 80.2481L80.7054 79.4721C80.9203 79.2959 80.9516 78.9778 80.774 78.7632L79.8395 77.6334L80.2117 77.3284L79.1531 76.0484L78.7808 76.3534L78.4726 75.9814L78.9219 75.6068L76.9523 73.491L76.9092 72.6338L77.7457 72.84L79.4535 75.1704L79.7199 74.9557L80.0288 75.3297L79.6566 75.6347L80.7159 76.9147L81.0875 76.6097L82.022 77.7395C82.1996 77.9534 82.519 77.9847 82.7338 77.8078L83.6795 77.0325C83.8943 76.8556 83.925 76.5382 83.748 76.3235L82.8135 75.1938L83.1857 74.8881L82.1265 73.6081L81.7549 73.9138L81.4564 73.5534L82.0161 73.1021L80.3142 70.7736L78.1533 70.4029C77.6315 69.4481 73.382 61.8476 67.8856 56.919C67.7753 56.6836 67.6337 56.4582 67.4603 56.2486C66.9579 55.6412 66.2732 55.2701 65.5494 55.1473L65.5068 55.0956L66.1658 54.5549L67.0082 53.8638C67.3147 54.0526 67.7206 54.0377 68.0139 53.7972L68.4927 53.4043C68.861 53.1022 68.9138 52.5579 68.6104 52.1912L66.7211 49.9071C66.4177 49.5403 65.8713 49.4877 65.5031 49.7899L65.0242 50.1827C64.7216 50.431 64.6325 50.8425 64.7784 51.1849L63.9443 51.8692L63.2876 52.408L62.2091 51.1018L62.8647 50.564L63.7071 49.8729C64.0136 50.0617 64.4195 50.0468 64.7128 49.8062L65.1917 49.4134C65.5599 49.1112 65.6127 48.567 65.3094 48.2003L63.4201 45.9161C63.1167 45.5494 62.5703 45.4967 62.202 45.7989L61.7231 46.1918C61.4206 46.44 61.3314 46.8515 61.4774 47.1939L60.6432 47.8783L59.9776 48.4243L57.7192 45.6223L70.1978 30.2086L72.8073 31.8677L72.0704 32.9618L74.9826 34.9079ZM83.2288 34.5951L82.1239 36.2359L81.4153 35.7625L82.5203 34.1218L83.2288 34.5951ZM80.3528 32.2374L82.3198 33.6011L81.7346 34.4625L80.3162 33.4564L80.3528 32.2374ZM81.4786 34.8398L80.661 36.0444L78.5359 34.5532L80.0608 33.8342L81.4786 34.8398ZM79.9204 31.4004L79.8597 33.4252L77.943 34.3289L76.1764 33.1485L78.1506 30.218L79.9204 31.4004ZM29.4619 32.2374L29.4981 33.4565L28.0797 34.4626L27.4948 33.6011L29.4619 32.2374ZM27.6909 36.2358L26.5856 34.595L27.294 34.1217L28.3993 35.7624L27.6909 36.2358ZM29.1537 36.0444L28.3359 34.8398L29.7536 33.8342L31.2786 34.5531L29.1537 36.0444ZM31.8715 34.3289L29.9545 33.4253L29.8943 31.4004L31.6637 30.2181L33.6379 33.1486L31.8715 34.3289ZM37.1096 32.8374L34.9565 34.2762L31.4056 29.0052L33.5586 27.5665L37.1096 32.8374ZM45.9667 49.3995C45.8237 49.5725 45.5659 49.5973 45.3922 49.4548L44.9133 49.0619C44.7396 48.9194 44.7147 48.6627 44.8578 48.4897L46.7471 46.2056C46.8902 46.0325 47.1479 46.0078 47.3216 46.1503L47.8005 46.5431C47.9743 46.6856 47.9991 46.9423 47.8561 47.1153L45.9667 49.3995ZM46.8874 49.9231L46.4337 49.5509L48.0739 47.568L48.5276 47.9401L46.8874 49.9231ZM47.2403 50.2126L48.8804 48.2296L49.5473 48.7767L47.8965 50.7492L47.8956 50.7502L47.2403 50.2126ZM42.6657 53.3905C42.5226 53.5635 42.2649 53.5883 42.0912 53.4457L41.6123 53.0529C41.4386 52.9104 41.4137 52.6537 41.5568 52.4807L43.4461 50.1965C43.5892 50.0235 43.847 49.9987 44.0207 50.1412L44.4995 50.5341C44.6732 50.6766 44.6981 50.9333 44.555 51.1063L42.6657 53.3905ZM43.5864 53.9141L43.1327 53.5419L44.7729 51.559L45.2266 51.9311L43.5864 53.9141ZM43.9392 54.2036L45.5793 52.2206L46.2363 52.7596L44.5979 54.744L43.9392 54.2036ZM27.4393 77.45C27.4222 77.4702 27.3916 77.4734 27.3709 77.4565L26.4258 76.6812C26.4051 76.6643 26.4021 76.6338 26.4192 76.613L27.3537 75.4832L28.3738 76.3203L27.4393 77.45ZM29.0365 76.2734L27.2723 74.8263L27.7499 74.2494L29.514 75.6965L29.0365 76.2734ZM29.4327 75.0396L28.4126 74.2032L28.7128 73.8403L29.7395 74.6689L29.4327 75.0396ZM30.4132 79.8897C30.3962 79.9105 30.3656 79.9131 30.3449 79.8962L29.3998 79.1209C29.3791 79.104 29.3761 79.0734 29.3932 79.0526L30.3277 77.9229L31.3478 78.7599L30.4132 79.8897ZM32.0105 78.7138L30.2463 77.266L30.7238 76.689L32.488 78.1362L32.0105 78.7138ZM32.4066 77.4799L31.3865 76.6429L31.6921 76.2734L32.7056 77.1183L32.4066 77.4799ZM34.967 73.1404L34.8801 73.2107L34.9294 75.4312L33.3824 77.0884L31.5545 75.5652L33.3108 73.679L33.3923 72.0445L31.7973 72.4373L30.2751 74.5154L28.4236 73.0201L29.7604 71.1912L31.9585 70.8139L32.0111 70.7151C32.0535 70.6357 36.1682 62.9724 41.6688 57.7785C41.5079 58.8402 41.894 59.9581 42.7849 60.6891C43.6752 61.4195 44.8499 61.5831 45.8649 61.2235C41.7953 67.5782 35.037 73.0839 34.967 73.1404ZM46.8906 59.9705C45.9404 61.1192 44.229 61.284 43.0755 60.3376C41.9221 59.3914 41.7567 57.6868 42.7069 56.5381C43.657 55.3894 45.3684 55.2246 46.5219 56.1709C47.6753 57.1173 47.8407 58.8217 46.8906 59.9705ZM48.4353 56.3646L48.4397 56.4513C48.4403 56.4652 48.4892 57.6395 47.9643 58.2713C47.9684 57.3558 47.5758 56.4457 46.8126 55.8195C46.2533 55.3607 45.5818 55.1261 44.9081 55.1036L46.8908 52.7066L46.8796 52.6975L47.9581 51.3913L47.9703 51.4014L50.1918 48.7156L50.1896 48.7138L52.3889 45.9851L54.6137 48.7331L48.4353 56.3646ZM80.4213 79.0526C80.4383 79.0734 80.4351 79.104 80.4148 79.1209L79.4698 79.8962C79.4489 79.9131 79.4182 79.9105 79.4013 79.8897L78.4667 78.7599L79.4868 77.9229L80.4213 79.0526ZM79.0904 76.689L79.5684 77.266L77.8039 78.7138L77.3265 78.1362L79.0904 76.689ZM77.4081 77.4799L77.109 77.1183L78.1226 76.2734L78.4282 76.6429L77.4081 77.4799ZM83.3954 76.613C83.4123 76.6338 83.4091 76.6643 83.3888 76.6812L82.4439 77.4565C82.423 77.4734 82.3923 77.4702 82.3753 77.45L81.4408 76.3203L82.4608 75.4832L83.3954 76.613ZM82.0644 74.2487L82.5425 74.8263L80.7779 76.2734L80.3005 75.6965L82.0644 74.2487ZM80.3822 75.0396L80.0752 74.6689L81.1018 73.8403L81.4016 74.2032L80.3822 75.0396ZM68.1457 57.7785C73.6465 62.9724 77.7608 70.6357 77.8032 70.7151L77.8561 70.8139L80.0543 71.1912L81.3911 73.0201L79.5397 74.5154L78.0174 72.4373L76.422 72.0445L76.5036 73.679L78.2604 75.5652L76.4324 77.0884L74.8853 75.4312L74.9343 73.2107L74.8475 73.1404C74.7776 73.0839 68.0193 67.5782 63.9497 61.2235C64.9647 61.5831 66.1394 61.4195 67.0297 60.6891C67.9206 59.9581 68.3067 58.8402 68.1457 57.7785ZM67.1076 56.5381C68.0578 57.6868 67.8924 59.3913 66.739 60.3376C65.5855 61.284 63.8741 61.1192 62.9239 59.9705C61.9738 58.8217 62.1391 57.1173 63.2926 56.1709C64.4461 55.2247 66.1575 55.3894 67.1076 56.5381ZM65.3151 50.5341L65.7939 50.1413C65.9677 49.9988 66.2254 50.0236 66.3685 50.1966L68.2578 52.4807C68.4009 52.6537 68.376 52.9105 68.2023 53.053L67.7234 53.4458C67.5497 53.5883 67.2919 53.5635 67.1488 53.3905L65.2596 51.1064C65.1165 50.9334 65.1414 50.6766 65.3151 50.5341ZM65.0417 51.559L66.6818 53.5419L66.2282 53.9141L64.588 51.9311L65.0417 51.559ZM64.2351 52.2206L65.8753 54.2036L65.2166 54.744L63.5782 52.7597L64.2351 52.2206ZM62.014 46.5431L62.4929 46.1503C62.6666 46.0078 62.9244 46.0325 63.0675 46.2056L64.9567 48.4897C65.0998 48.6627 65.0749 48.9194 64.9012 49.0619L64.4223 49.4548C64.2486 49.5973 63.9908 49.5725 63.8478 49.3995L61.9585 47.1153C61.8154 46.9423 61.8403 46.6856 62.014 46.5431ZM61.7407 47.568L63.3808 49.5509L62.9271 49.9231L61.287 47.9401L61.7407 47.568ZM60.9341 48.2296L62.5743 50.2126L61.919 50.7502L61.9182 50.7492L60.2673 48.7767L60.9341 48.2296ZM59.625 48.7138L59.6228 48.7156L61.8442 51.4014L61.8565 51.3913L62.935 52.6975L62.9238 52.7066L64.9064 55.1036C64.2328 55.1261 63.5613 55.3607 63.002 55.8195C62.2388 56.4457 61.8461 57.3558 61.8502 58.2713C61.3254 57.6395 61.3742 56.4652 61.3749 56.4513L61.3792 56.3646L55.201 48.7331L54.9073 48.3704L52.6819 45.6216L52.3882 45.2588L39.7154 29.6055L36.7645 31.4817L34.7711 28.5281L40.5335 25.0268L54.6142 42.4967L54.9073 42.8604L57.1327 45.6215L57.4257 45.985L59.625 48.7138ZM70.099 29.6055L57.4264 45.2588L55.2003 42.4968L69.281 25.0268L75.0434 28.5282L73.0502 31.4817L70.099 29.6055ZM76.2561 27.5664L78.4093 29.0051L74.8579 34.2761L72.7048 32.8374L76.2561 27.5664Z" fill="#161616"/>
<path d="M75.7169 71.3686C76.1688 70.9979 76.2334 70.3306 75.8612 69.8805C75.4889 69.4311 74.8189 69.366 74.3676 69.7368C73.9157 70.1075 73.8511 70.7748 74.2233 71.2249C74.5949 71.6743 75.2649 71.7387 75.7169 71.3686ZM74.6582 70.088C74.9149 69.8772 75.2963 69.9143 75.5085 70.1699C75.7201 70.4262 75.6835 70.806 75.4262 71.0168C75.1689 71.2281 74.7875 71.1911 74.576 70.9355C74.3644 70.6792 74.4009 70.2994 74.6582 70.088Z" fill="#161616"/>
<path d="M67.3398 62.545C67.6719 62.9466 68.2702 63.0041 68.6734 62.6733C69.0766 62.3425 69.1344 61.7467 68.8022 61.3452C68.4701 60.9436 67.8718 60.886 67.4686 61.2168C67.0654 61.5476 67.0076 62.1435 67.3398 62.545ZM67.7594 61.5682C67.968 61.3971 68.2776 61.4268 68.4495 61.6347C68.6213 61.8425 68.5914 62.1507 68.3828 62.3219C68.1741 62.4931 67.8646 62.4633 67.6926 62.2555C67.5207 62.0477 67.5507 61.7394 67.7594 61.5682Z" fill="#161616"/>
<path d="M45.515 57.3896C45.0369 56.9973 44.3275 57.0656 43.9336 57.5418C43.5397 58.0179 43.6082 58.7245 44.0863 59.1167C44.5645 59.509 45.2739 59.4407 45.6678 58.9645C46.0617 58.4884 45.9931 57.7818 45.515 57.3896ZM45.315 58.675C45.0814 58.9574 44.6607 58.998 44.3771 58.7653C44.0935 58.5327 44.0529 58.1137 44.2865 57.8312C44.52 57.5488 44.9408 57.5083 45.2244 57.7409C45.5079 57.9736 45.5486 58.3927 45.315 58.675Z" fill="#161616"/>
<path d="M35.4503 69.7368C34.9987 69.366 34.3285 69.4311 33.9565 69.8805C33.5845 70.3306 33.6492 70.9979 34.1009 71.3686C34.5526 71.7387 35.2227 71.6743 35.5947 71.2242C35.9667 70.7748 35.902 70.1075 35.4503 69.7368ZM35.2419 70.9348C35.0301 71.1911 34.6486 71.2281 34.3915 71.0168C34.1344 70.806 34.0976 70.4262 34.3094 70.1699C34.5212 69.9143 34.9026 69.8772 35.1597 70.088C35.4168 70.2994 35.4537 70.6792 35.2419 70.9348Z" fill="#161616"/>
<path d="M42.3482 61.2168C41.945 60.886 41.3467 60.9436 41.0146 61.3452C40.6824 61.7467 40.7402 62.3425 41.1434 62.6733C41.5466 63.0041 42.1449 62.9466 42.4771 62.545C42.8092 62.1435 42.7514 61.5476 42.3482 61.2168ZM42.1242 62.2555C41.9523 62.4633 41.6428 62.4931 41.4341 62.3219C41.2255 62.1507 41.1956 61.8425 41.3674 61.6347C41.5393 61.4268 41.8489 61.3971 42.0575 61.5682C42.2662 61.7394 42.2962 62.0477 42.1242 62.2555Z" fill="#161616"/>
<path d="M45.378 14.1752C46.4121 13.5379 46.9638 12.5038 46.8306 11.4142C46.719 10.5008 46.2757 9.80001 45.5534 9.39045C44.7318 8.87825 43.6884 8.73185 42.17 8.91611C41.1762 9.03656 40.1248 9.25868 39.4262 9.49595L39.3271 9.52964L40.7476 21.1526L40.8601 21.1544C40.9084 21.1552 40.9633 21.1557 41.0252 21.1557C41.4553 21.1557 42.209 21.1318 43.2272 21.0084C45.1689 20.773 46.4692 20.2443 47.205 19.3895C47.804 18.6506 48.0492 17.7965 47.9336 16.8509C47.7349 15.2263 46.4962 14.4157 45.378 14.1752ZM41.2359 10.5398C41.5327 10.4495 41.9331 10.3735 42.4285 10.3134C44.0407 10.1178 44.9301 10.6128 45.0734 11.7843C45.1372 12.3059 44.9782 12.7787 44.6139 13.1516C44.2277 13.5467 43.6353 13.8024 42.9008 13.8915L41.6639 14.0415L41.2359 10.5398ZM45.4352 18.8129C44.9866 19.1824 44.312 19.4308 43.4846 19.5309C42.9738 19.5928 42.6075 19.6219 42.3451 19.6177L41.8336 15.4321L42.9497 15.2967C43.8151 15.1918 45.8533 15.1533 46.0859 17.0574C46.1758 17.7927 45.9569 18.3834 45.4352 18.8129Z" fill="#161616"/>
<path d="M54.0534 20.267L55.8428 20.2685L55.8516 9.86809L59.4369 9.87108L59.4382 8.33157L50.4954 8.32422L50.4941 9.8636L54.0621 9.86659L54.0534 20.267Z" fill="#161616"/>
<path d="M63.4661 15.1819C63.7833 13.7309 64.0992 12.1901 64.344 10.9023C64.4567 11.9854 64.6369 13.2282 64.9091 14.8092L65.9361 20.6889L67.2515 20.8939L70.2205 15.5337C70.932 14.254 71.5414 13.0912 72.0727 11.9995C71.8762 13.3439 71.7091 14.9717 71.5705 16.3203L71.055 21.5564L72.7724 21.8239L73.8866 9.91233L71.7691 9.58277L68.7846 14.9242C68.0442 16.2925 67.5165 17.3428 67.1077 18.2652C67.008 17.2436 66.8428 16.0861 66.5831 14.5814L65.4654 8.60111L63.3479 8.27148L60.6699 19.9392L62.3534 20.2014L63.4661 15.1819Z" fill="#161616"/>
<path d="M55.4788 1.83789H54.3848V3.99496H55.4788V1.83789Z" fill="#161616"/>
<path d="M53.8551 1.84766L52.7617 1.88568L52.8373 4.04146L53.9306 4.00343L53.8551 1.84766Z" fill="#161616"/>
<path d="M52.231 1.91016L51.1396 1.98621L51.2908 4.1381L52.3822 4.06205L52.231 1.91016Z" fill="#161616"/>
<path d="M50.6065 2.03711L49.5186 2.15097L49.7449 4.29618L50.8329 4.18232L50.6065 2.03711Z" fill="#161616"/>
<path d="M48.9936 2.21289L47.9102 2.36456L48.2117 4.50071L49.2951 4.34904L48.9936 2.21289Z" fill="#161616"/>
<path d="M47.382 2.44922L46.3047 2.63836L46.6807 4.76265L47.7581 4.57351L47.382 2.44922Z" fill="#161616"/>
<path d="M45.781 2.73828L44.7109 2.9648L45.1612 5.07464L46.2313 4.84812L45.781 2.73828Z" fill="#161616"/>
<path d="M44.1944 3.08594L43.1328 3.3495L43.6568 5.44251L44.7183 5.17895L44.1944 3.08594Z" fill="#161616"/>
<path d="M42.6201 3.48633L41.5684 3.78661L42.1653 5.86021L43.217 5.55992L42.6201 3.48633Z" fill="#161616"/>
<path d="M41.06 3.94141L40.0195 4.27808L40.6887 6.32967L41.7292 5.993L41.06 3.94141Z" fill="#161616"/>
<path d="M39.5153 4.44922L38.4873 4.82185L39.228 6.84885L40.2561 6.47622L39.5153 4.44922Z" fill="#161616"/>
<path d="M37.9909 5.01172L36.9766 5.41987L37.7879 7.4199L38.8023 7.01177L37.9909 5.01172Z" fill="#161616"/>
<path d="M36.4857 5.62891L35.4863 6.07203L36.3672 8.04249L37.3666 7.59937L36.4857 5.62891Z" fill="#161616"/>
<path d="M35.0057 6.29297L34.0225 6.77063L34.9719 8.70942L35.9553 8.23176L35.0057 6.29297Z" fill="#161616"/>
<path d="M33.5469 7.01172L32.5811 7.52326L33.5979 9.42772L34.5638 8.91617L33.5469 7.01172Z" fill="#161616"/>
<path d="M32.1154 7.78125L31.168 8.32603L32.2509 10.1941L33.1983 9.64928L32.1154 7.78125Z" fill="#161616"/>
<path d="M30.7109 8.59766L29.7832 9.17502L30.931 11.0042L31.8586 10.4269L30.7109 8.59766Z" fill="#161616"/>
<path d="M29.3386 9.46484L28.4316 10.0741L29.6428 11.8623L30.5498 11.2531L29.3386 9.46484Z" fill="#161616"/>
<path d="M27.9964 10.377L27.1113 11.0174L28.3844 12.7625L29.2694 12.122L27.9964 10.377Z" fill="#161616"/>
<path d="M26.6863 11.3359L25.8242 12.0068L27.1578 13.7066L28.0198 13.0358L26.6863 11.3359Z" fill="#161616"/>
<path d="M25.4103 12.3398L24.5723 13.0402L25.9645 14.6926L26.8025 13.9921L25.4103 12.3398Z" fill="#161616"/>
<path d="M24.1694 13.3887L23.3564 14.1176L24.8057 15.7206L25.6186 14.9915L24.1694 13.3887Z" fill="#161616"/>
<path d="M22.9686 14.4785L22.1816 15.2355L23.6863 16.787L24.4732 16.0301L22.9686 14.4785Z" fill="#161616"/>
<path d="M21.8059 15.6133L21.0459 16.397L22.6038 17.8955L23.3638 17.1118L21.8059 15.6133Z" fill="#161616"/>
<path d="M20.6822 16.7832L19.9502 17.5928L21.5597 19.0361L22.2917 18.2265L20.6822 16.7832Z" fill="#161616"/>
<path d="M19.6017 17.9922L18.8984 18.8268L20.5575 20.2133L21.2608 19.3787L19.6017 17.9922Z" fill="#161616"/>
<path d="M18.5642 19.2402L17.8906 20.0988L19.5973 21.4269L20.2709 20.5684L18.5642 19.2402Z" fill="#161616"/>
<path d="M17.5698 20.5215L16.9268 21.4029L18.6789 22.6709L19.322 21.7894L17.5698 20.5215Z" fill="#161616"/>
<path d="M16.6206 21.8359L16.0088 22.7392L17.8043 23.9454L18.4161 23.0421L16.6206 21.8359Z" fill="#161616"/>
<path d="M15.7193 23.1836L15.1396 24.1076L16.9763 25.2506L17.556 24.3267L15.7193 23.1836Z" fill="#161616"/>
<path d="M14.8654 24.5625L14.3184 25.506L16.194 26.5846L16.741 25.6411L14.8654 24.5625Z" fill="#161616"/>
<path d="M14.0605 25.9688L13.5469 26.9307L15.4591 27.9435L15.9727 26.9815L14.0605 25.9688Z" fill="#161616"/>
<path d="M13.3077 27.4023L12.8281 28.3817L14.7748 29.3273L15.2544 28.348L13.3077 27.4023Z" fill="#161616"/>
<path d="M12.6002 28.8613L12.1553 29.8566L14.1338 30.7339L14.5787 29.7386L12.6002 28.8613Z" fill="#161616"/>
<path d="M11.9508 30.3457L11.541 31.3559L13.5492 32.164L13.9591 31.1537L11.9508 30.3457Z" fill="#161616"/>
<path d="M11.3497 31.8496L10.9756 32.8735L13.0109 33.6112L13.385 32.5873L11.3497 31.8496Z" fill="#161616"/>
<path d="M10.8029 33.375L10.4648 34.4113L12.5248 35.0778L12.8629 34.0415L10.8029 33.375Z" fill="#161616"/>
<path d="M10.3083 34.916L10.0068 35.9634L12.0889 36.5579L12.3904 35.5106L10.3083 34.916Z" fill="#161616"/>
<path d="M9.86816 36.4766L9.60352 37.5337L11.7051 38.0556L11.9697 36.9983L9.86816 36.4766Z" fill="#161616"/>
<path d="M9.48331 38.0508L9.25586 39.1165L11.3743 39.5649L11.6018 38.4992L9.48331 38.0508Z" fill="#161616"/>
<path d="M9.15476 39.6348L8.96484 40.7078L11.0978 41.0822L11.2877 40.0093L9.15476 39.6348Z" fill="#161616"/>
<path d="M8.88373 41.2344L8.73145 42.3134L10.8763 42.6136L11.0286 41.5347L8.88373 41.2344Z" fill="#161616"/>
<path d="M8.66413 42.8359L8.5498 43.9195L10.7038 44.1449L10.8181 43.0614L8.66413 42.8359Z" fill="#161616"/>
<path d="M8.50605 44.4512L8.42969 45.5381L10.5904 45.6887L10.6667 44.6017L8.50605 44.4512Z" fill="#161616"/>
<path d="M8.39951 46.0645L8.36133 47.1534L10.5259 47.2286L10.5641 46.1397L8.39951 46.0645Z" fill="#161616"/>
<path d="M10.5194 47.6836H8.35352V48.7732H10.5194V47.6836Z" fill="#161616"/>
<path d="M10.5259 49.2285L8.36133 49.3038L8.39951 50.3928L10.5641 50.3174L10.5259 49.2285Z" fill="#161616"/>
<path d="M10.5904 50.7734L8.42969 50.924L8.50605 52.011L10.6667 51.8604L10.5904 50.7734Z" fill="#161616"/>
<path d="M10.7028 52.3086L8.54883 52.534L8.66315 53.6176L10.8171 53.3922L10.7028 52.3086Z" fill="#161616"/>
<path d="M10.8763 53.8477L8.73145 54.1479L8.88373 55.2269L11.0286 54.9266L10.8763 53.8477Z" fill="#161616"/>
<path d="M11.1007 55.373L8.96777 55.7478L9.1578 56.8207L11.2908 56.4461L11.1007 55.373Z" fill="#161616"/>
<path d="M11.3743 56.8906L9.25586 57.3391L9.4833 58.4048L11.6017 57.9563L11.3743 56.8906Z" fill="#161616"/>
<path d="M11.7051 58.4023L9.60352 58.9242L9.86816 59.9813L11.9697 59.4595L11.7051 58.4023Z" fill="#161616"/>
<path d="M12.0879 59.9004L10.0059 60.4949L10.3074 61.5423L12.3894 60.9478L12.0879 59.9004Z" fill="#161616"/>
<path d="M12.5229 61.3828L10.4629 62.0493L10.8009 63.0856L12.8609 62.4191L12.5229 61.3828Z" fill="#161616"/>
<path d="M13.0089 62.8457L10.9736 63.5835L11.3478 64.6073L13.3831 63.8696L13.0089 62.8457Z" fill="#161616"/>
<path d="M13.5472 64.2949L11.5391 65.1031L11.9489 66.1132L13.9571 65.3054L13.5472 64.2949Z" fill="#161616"/>
<path d="M14.1328 65.7188L12.1543 66.5962L12.5992 67.5913L14.5778 66.7139L14.1328 65.7188Z" fill="#161616"/>
<path d="M14.7758 67.1289L12.8291 68.0746L13.3087 69.0541L15.2554 68.1084L14.7758 67.1289Z" fill="#161616"/>
<path d="M15.4621 68.5098L13.5498 69.5225L14.0634 70.4844L15.9757 69.4717L15.4621 68.5098Z" fill="#161616"/>
<path d="M16.195 69.8711L14.3193 70.9495L14.8663 71.8932L16.742 70.8148L16.195 69.8711Z" fill="#161616"/>
<path d="M16.9753 71.2031L15.1387 72.3459L15.7184 73.2701L17.5551 72.1267L16.9753 71.2031Z" fill="#161616"/>
<path d="M17.8053 72.5098L16.0098 73.7163L16.6216 74.619L18.4171 73.4132L17.8053 72.5098Z" fill="#161616"/>
<path d="M18.6799 73.7871L16.9277 75.0547L17.5708 75.9361L19.323 74.6684L18.6799 73.7871Z" fill="#161616"/>
<path d="M19.5993 75.0312L17.8926 76.3594L18.5661 77.2179L20.2729 75.8898L19.5993 75.0312Z" fill="#161616"/>
<path d="M20.5575 76.2402L18.8984 77.6263L19.6017 78.4614L21.2607 77.0747L20.5575 76.2402Z" fill="#161616"/>
<path d="M21.5577 77.418L19.9482 78.8619L20.6803 79.671L22.2897 78.2277L21.5577 77.418Z" fill="#161616"/>
<path d="M22.6068 78.5605L21.0488 80.0591L21.8089 80.8428L23.3667 79.3443L22.6068 78.5605Z" fill="#161616"/>
<path d="M23.6834 79.6738L22.1787 81.2251L22.9656 81.9821L24.4702 80.4303L23.6834 79.6738Z" fill="#161616"/>
<path d="M24.8027 80.7344L23.3535 82.337L24.1664 83.0661L25.6157 81.4635L24.8027 80.7344Z" fill="#161616"/>
<path d="M25.9615 81.7656L24.5693 83.4177L25.4073 84.1181L26.7995 82.4661L25.9615 81.7656Z" fill="#161616"/>
<path d="M27.1578 82.7539L25.8242 84.4541L26.6863 85.1246L28.0199 83.4251L27.1578 82.7539Z" fill="#161616"/>
<path d="M28.3825 83.6953L27.1094 85.4403L27.9944 86.081L29.2675 84.336L28.3825 83.6953Z" fill="#161616"/>
<path d="M29.6409 84.5977L28.4297 86.3856L29.3366 86.995L30.5478 85.2071L29.6409 84.5977Z" fill="#161616"/>
<path d="M30.928 85.4512L29.7803 87.2801L30.708 87.8577L31.8557 86.0287L30.928 85.4512Z" fill="#161616"/>
<path d="M32.25 86.2637L31.167 88.1316L32.1145 88.6767L33.1974 86.8087L32.25 86.2637Z" fill="#161616"/>
<path d="M33.595 87.0332L32.5781 88.9376L33.5441 89.4495L34.561 87.5451L33.595 87.0332Z" fill="#161616"/>
<path d="M34.973 87.75L34.0234 89.6889L35.0067 90.1669L35.9563 88.228L34.973 87.75Z" fill="#161616"/>
<path d="M36.3623 88.4141L35.4814 90.3848L36.4808 90.8277L37.3617 88.857L36.3623 88.4141Z" fill="#161616"/>
<path d="M37.7879 89.0352L36.9766 91.0352L37.991 91.4436L38.8023 89.443L37.7879 89.0352Z" fill="#161616"/>
<path d="M39.2281 89.6055L38.4873 91.6328L39.5154 92.0055L40.2561 89.9782L39.2281 89.6055Z" fill="#161616"/>
<path d="M40.6907 90.125L40.0215 92.177L41.0619 92.5133L41.7312 90.4619L40.6907 90.125Z" fill="#161616"/>
<path d="M42.1672 90.5938L41.5703 92.6672L42.6219 92.9677L43.2189 90.8942L42.1672 90.5938Z" fill="#161616"/>
<path d="M43.6568 91.0137L43.1328 93.1067L44.1944 93.3701L44.7183 91.2771L43.6568 91.0137Z" fill="#161616"/>
<path d="M45.1593 91.3828L44.709 93.4927L45.779 93.7191L46.2293 91.6092L45.1593 91.3828Z" fill="#161616"/>
<path d="M46.6829 91.7012L46.3066 93.8254L47.384 94.0146L47.7602 91.8904L46.6829 91.7012Z" fill="#161616"/>
<path d="M48.2136 91.957L47.9121 94.093L48.9955 94.2445L49.297 92.1086L48.2136 91.957Z" fill="#161616"/>
<path d="M49.7419 92.1621L49.5156 94.3078L50.6036 94.4216L50.8299 92.2759L49.7419 92.1621Z" fill="#161616"/>
<path d="M51.2947 92.3203L51.1436 94.4725L52.235 94.548L52.3861 92.3964L51.2947 92.3203Z" fill="#161616"/>
<path d="M52.8373 92.416L52.7617 94.5715L53.8551 94.6098L53.9307 92.4537L52.8373 92.416Z" fill="#161616"/>
<path d="M55.4788 92.4629H54.3848V94.6196H55.4788V92.4629Z" fill="#161616"/>
<path d="M57.0299 92.416L55.9365 92.4544L56.0121 94.6098L57.1055 94.5721L57.0299 92.416Z" fill="#161616"/>
<path d="M58.5816 92.3164L57.4902 92.3925L57.6414 94.5447L58.7328 94.4686L58.5816 92.3164Z" fill="#161616"/>
<path d="M60.1153 92.1621L59.0273 92.2759L59.2536 94.421L60.3416 94.3071L60.1153 92.1621Z" fill="#161616"/>
<path d="M61.6595 91.957L60.5762 92.1086L60.8776 94.2445L61.9611 94.093L61.6595 91.957Z" fill="#161616"/>
<path d="M63.1789 91.6973L62.1016 91.8865L62.4775 94.0108L63.555 93.8215L63.1789 91.6973Z" fill="#161616"/>
<path d="M64.699 91.3789L63.6289 91.6053L64.0792 93.7152L65.1493 93.4882L64.699 91.3789Z" fill="#161616"/>
<path d="M66.206 91.0176L65.1445 91.281L65.6684 93.374L66.73 93.1106L66.206 91.0176Z" fill="#161616"/>
<path d="M67.7001 90.6035L66.6484 90.904L67.2453 92.9775L68.297 92.677L67.7001 90.6035Z" fill="#161616"/>
<path d="M69.1782 90.1348L68.1377 90.471L68.8069 92.5224L69.8475 92.1861L69.1782 90.1348Z" fill="#161616"/>
<path d="M70.6355 89.6113L69.6074 89.984L70.3482 92.0107L71.3762 91.638L70.6355 89.6113Z" fill="#161616"/>
<path d="M72.0779 89.0391L71.0635 89.4475L71.8748 91.4475L72.889 91.0391L72.0779 89.0391Z" fill="#161616"/>
<path d="M73.4914 88.4141L72.4922 88.8576L73.3732 90.8277L74.3723 90.3848L73.4914 88.4141Z" fill="#161616"/>
<path d="M74.8969 87.7461L73.9141 88.2235L74.8636 90.1624L75.8465 89.6843L74.8969 87.7461Z" fill="#161616"/>
<path d="M76.2657 87.0234L75.2998 87.5347L76.3166 89.439L77.2825 88.9278L76.2657 87.0234Z" fill="#161616"/>
<path d="M77.6117 86.2617L76.6641 86.8061L77.7475 88.6741L78.6944 88.1297L77.6117 86.2617Z" fill="#161616"/>
<path d="M78.927 85.4492L77.999 86.0261L79.1464 87.8557L80.0744 87.2782L78.927 85.4492Z" fill="#161616"/>
<path d="M80.2196 84.5918L79.3125 85.2012L80.5239 86.9898L81.4304 86.3804L80.2196 84.5918Z" fill="#161616"/>
<path d="M81.4806 83.6914L80.5957 84.3314L81.8685 86.0764L82.7541 85.4364L81.4806 83.6914Z" fill="#161616"/>
<path d="M82.7097 82.7461L81.8477 83.4167L83.1812 85.1168L84.0432 84.4456L82.7097 82.7461Z" fill="#161616"/>
<path d="M83.8984 81.7598L83.0605 82.4602L84.4529 84.1123L85.2907 83.4118L83.8984 81.7598Z" fill="#161616"/>
<path d="M85.0513 80.7344L84.2383 81.4635L85.6874 83.0667L86.5005 82.3376L85.0513 80.7344Z" fill="#161616"/>
<path d="M86.1795 79.6621L85.3926 80.4192L86.8972 81.971L87.6842 81.214L86.1795 79.6621Z" fill="#161616"/>
<path d="M87.2621 78.5703L86.502 79.354L88.0595 80.8526L88.8197 80.0689L87.2621 78.5703Z" fill="#161616"/>
<path d="M88.2995 77.4238L87.5674 78.2329L89.1765 79.6762L89.9086 78.8671L88.2995 77.4238Z" fill="#161616"/>
<path d="M89.3049 76.25L88.6016 77.0845L90.2603 78.4711L90.9637 77.636L89.3049 76.25Z" fill="#161616"/>
<path d="M90.271 75.0352L89.5977 75.8937L91.3041 77.2218L91.9774 76.3633L90.271 75.0352Z" fill="#161616"/>
<path d="M91.1862 73.791L90.543 74.6723L92.2951 75.94L92.9384 75.0587L91.1862 73.791Z" fill="#161616"/>
<path d="M92.0572 72.5156L91.4453 73.419L93.2406 74.6249L93.8525 73.7221L92.0572 72.5156Z" fill="#161616"/>
<path d="M92.8826 71.209L92.3027 72.1326L94.1391 73.276L94.719 72.3518L92.8826 71.209Z" fill="#161616"/>
<path d="M93.6667 69.875L93.1201 70.8187L94.9957 71.8971L95.5423 70.9534L93.6667 69.875Z" fill="#161616"/>
<path d="M94.4039 68.5195L93.8906 69.4815L95.8028 70.4942L96.3161 69.5322L94.4039 68.5195Z" fill="#161616"/>
<path d="M95.0952 67.1309L94.6152 68.1104L96.562 69.0561L97.042 68.0765L95.0952 67.1309Z" fill="#161616"/>
<path d="M95.7231 65.7246L95.2783 66.7197L97.2565 67.5971L97.7018 66.6013L95.7231 65.7246Z" fill="#161616"/>
<path d="M96.3177 64.291L95.9082 65.3012L97.9164 66.109L98.3259 65.099L96.3177 64.291Z" fill="#161616"/>
<path d="M96.8537 62.8438L96.4795 63.8676L98.5151 64.6053L98.8893 63.5814L96.8537 62.8438Z" fill="#161616"/>
<path d="M97.3441 61.375L97.0059 62.4113L99.0663 63.0778L99.4039 62.0415L97.3441 61.375Z" fill="#161616"/>
<path d="M97.7757 59.8906L97.4746 60.938L99.5566 61.5325L99.8576 60.4852L97.7757 59.8906Z" fill="#161616"/>
<path d="M98.1587 58.3984L97.8936 59.4556L99.9951 59.9774L100.26 58.9202L98.1587 58.3984Z" fill="#161616"/>
<path d="M98.487 56.8965L98.2598 57.9622L100.378 58.4106L100.606 57.3449L98.487 56.8965Z" fill="#161616"/>
<path d="M98.7623 55.3711L98.5723 56.4441L100.705 56.8186L100.895 55.7456L98.7623 55.3711Z" fill="#161616"/>
<path d="M98.994 53.8438L98.8418 54.9227L100.986 55.223L101.139 54.144L98.994 53.8438Z" fill="#161616"/>
<path d="M99.1573 52.3105L99.043 53.3941L101.197 53.6195L101.311 52.536L99.1573 52.3105Z" fill="#161616"/>
<path d="M99.2825 50.7695L99.2061 51.8565L101.366 52.0071L101.443 50.9201L99.2825 50.7695Z" fill="#161616"/>
<path d="M99.3387 49.2266L99.3008 50.3155L101.465 50.3907L101.504 49.3018L99.3387 49.2266Z" fill="#161616"/>
<path d="M101.511 47.6836H99.3457V48.7732H101.511V47.6836Z" fill="#161616"/>
<path d="M101.466 46.0664L99.3008 46.1417L99.3393 47.2306L101.504 47.1553L101.466 46.0664Z" fill="#161616"/>
<path d="M101.366 44.4473L99.2061 44.5978L99.2825 45.6847L101.443 45.5342L101.366 44.4473Z" fill="#161616"/>
<path d="M101.197 42.8398L99.043 43.0652L99.1573 44.1488L101.311 43.9234L101.197 42.8398Z" fill="#161616"/>
<path d="M100.986 41.2324L98.8418 41.5327L98.994 42.6117L101.139 42.3114L100.986 41.2324Z" fill="#161616"/>
<path d="M100.707 39.6406L98.5742 40.0151L98.7643 41.0881L100.897 40.7136L100.707 39.6406Z" fill="#161616"/>
<path d="M100.375 38.0508L98.2568 38.4992L98.4841 39.5649L100.603 39.1165L100.375 38.0508Z" fill="#161616"/>
<path d="M99.9961 36.4785L97.8945 37.0003L98.1597 38.0575L100.261 37.5357L99.9961 36.4785Z" fill="#161616"/>
<path d="M99.5595 34.9238L97.4775 35.5183L97.7786 36.5657L99.8612 35.9712L99.5595 34.9238Z" fill="#161616"/>
<path d="M99.0666 33.377L97.0068 34.0435L97.3445 35.0798L99.4049 34.4132L99.0666 33.377Z" fill="#161616"/>
<path d="M98.5164 31.8516L96.4814 32.5892L96.8556 33.6131L98.8906 32.8754L98.5164 31.8516Z" fill="#161616"/>
<path d="M97.9164 30.3457L95.9082 31.1538L96.3177 32.164L98.3258 31.3559L97.9164 30.3457Z" fill="#161616"/>
<path d="M97.2574 28.8633L95.2793 29.7406L95.724 30.7359L97.7028 29.8586L97.2574 28.8633Z" fill="#161616"/>
<path d="M96.5601 27.4004L94.6133 28.346L95.0926 29.3253L97.0394 28.3796L96.5601 27.4004Z" fill="#161616"/>
<path d="M95.7999 25.9648L93.8877 26.9776L94.401 27.9395L96.3132 26.9268L95.7999 25.9648Z" fill="#161616"/>
<path d="M94.9957 24.5605L93.1201 25.6391L93.6674 26.5827L95.543 25.5041L94.9957 24.5605Z" fill="#161616"/>
<path d="M94.1401 23.1836L92.3037 24.3267L92.8836 25.2506L94.72 24.1076L94.1401 23.1836Z" fill="#161616"/>
<path d="M93.2406 21.834L91.4453 23.0402L92.0572 23.9434L93.8525 22.7372L93.2406 21.834Z" fill="#161616"/>
<path d="M92.2942 20.5195L90.542 21.7874L91.1853 22.6689L92.9374 21.401L92.2942 20.5195Z" fill="#161616"/>
<path d="M91.3012 19.2363L89.5947 20.5645L90.268 21.423L91.9751 20.0949L91.3012 19.2363Z" fill="#161616"/>
<path d="M90.2594 17.9902L88.6006 19.3768L89.3039 20.2114L90.9627 18.8248L90.2594 17.9902Z" fill="#161616"/>
<path d="M89.1785 16.7852L87.5693 18.2284L88.3008 19.0381L89.9106 17.5948L89.1785 16.7852Z" fill="#161616"/>
<path d="M88.0566 15.6074L86.499 17.106L87.2592 17.8896L88.8167 16.3912L88.0566 15.6074Z" fill="#161616"/>
<path d="M86.8992 14.4844L85.3945 16.036L86.1815 16.7929L87.6861 15.2413L86.8992 14.4844Z" fill="#161616"/>
<path d="M85.6913 13.3926L84.2422 14.9955L85.0552 15.7245L86.5044 14.1216L85.6913 13.3926Z" fill="#161616"/>
<path d="M84.4548 12.3438L83.0625 13.996L83.9004 14.6965L85.2927 13.0441L84.4548 12.3438Z" fill="#161616"/>
<path d="M83.1812 11.3379L81.8477 13.0377L82.7103 13.7085L84.0439 12.0087L83.1812 11.3379Z" fill="#161616"/>
<path d="M81.8692 10.3789L80.5957 12.1239L81.4806 12.7644L82.7541 11.0194L81.8692 10.3789Z" fill="#161616"/>
<path d="M80.5262 9.4668L79.3154 11.255L80.2225 11.8643L81.4333 10.0761L80.5262 9.4668Z" fill="#161616"/>
<path d="M79.151 8.60156L78.0029 10.4308L78.9309 11.0081L80.0783 9.17893L79.151 8.60156Z" fill="#161616"/>
<path d="M77.7488 7.7832L76.666 9.65124L77.6136 10.196L78.6964 8.32798L77.7488 7.7832Z" fill="#161616"/>
<path d="M76.3195 7.01562L75.3027 8.92014L76.2686 9.43169L77.2854 7.52717L76.3195 7.01562Z" fill="#161616"/>
<path d="M74.8626 6.29492L73.9131 8.23368L74.8966 8.71134L75.8461 6.77261L74.8626 6.29492Z" fill="#161616"/>
<path d="M73.3761 5.63086L72.4951 7.60132L73.495 8.04444L74.3759 6.07398L73.3761 5.63086Z" fill="#161616"/>
<path d="M71.8739 5.01172L71.0625 7.01176L72.0769 7.41989L72.8883 5.41987L71.8739 5.01172Z" fill="#161616"/>
<path d="M70.3481 4.44922L69.6074 6.47622L70.6354 6.84887L71.3762 4.82185L70.3481 4.44922Z" fill="#161616"/>
<path d="M68.805 3.9375L68.1357 5.98909L69.1763 6.32576L69.8455 4.27417L68.805 3.9375Z" fill="#161616"/>
<path d="M67.2444 3.48242L66.6475 5.55602L67.6991 5.8563L68.296 3.7827L67.2444 3.48242Z" fill="#161616"/>
<path d="M65.6684 3.08398L65.1445 5.17699L66.206 5.44055L66.73 3.34755L65.6684 3.08398Z" fill="#161616"/>
<path d="M64.0811 2.74219L63.6309 4.85202L64.7009 5.07854L65.1512 2.96871L64.0811 2.74219Z" fill="#161616"/>
<path d="M62.4795 2.44922L62.1035 4.57351L63.1809 4.76265L63.5569 2.63837L62.4795 2.44922Z" fill="#161616"/>
<path d="M60.8757 2.21289L60.5742 4.34903L61.6576 4.5007L61.9591 2.36455L60.8757 2.21289Z" fill="#161616"/>
<path d="M59.2557 2.03711L59.0293 4.18232L60.1173 4.29618L60.3437 2.15097L59.2557 2.03711Z" fill="#161616"/>
<path d="M57.6385 1.91211L57.4873 4.06401L58.5787 4.14006L58.7299 1.98816L57.6385 1.91211Z" fill="#161616"/>
<path d="M56.0111 1.84766L55.9355 4.00343L57.0289 4.04146L57.1045 1.88568L56.0111 1.84766Z" fill="#161616"/>
<path d="M17.3209 49.7268C18.1516 49.5925 18.7157 48.813 18.5809 47.9857C18.4461 47.1583 17.6634 46.5965 16.8327 46.7308C16.002 46.865 15.4378 47.6445 15.5727 48.4719C15.7074 49.2992 16.4902 49.861 17.3209 49.7268Z" fill="#161616"/>
<path d="M92.5542 49.7249C93.3849 49.5906 93.9492 48.8111 93.8146 47.9837C93.6794 47.1564 92.8971 46.5946 92.0664 46.7288C91.2357 46.8631 90.6714 47.6426 90.806 48.47C90.9411 49.2973 91.7235 49.8592 92.5542 49.7249Z" fill="#161616"/>
<path d="M44.5644 82.0122C44.7898 82.0122 44.9726 81.8301 44.9726 81.6057C44.9726 81.3807 44.7898 81.1992 44.5644 81.1992C44.339 81.1992 44.1562 81.3807 44.1562 81.6057C44.1562 81.8301 44.339 82.0122 44.5644 82.0122Z" fill="#161616"/>
<path d="M63.6513 82.0122C63.8768 82.0122 64.0595 81.8301 64.0595 81.6057C64.0595 81.3807 63.8768 81.1992 63.6513 81.1992C63.4259 81.1992 63.2432 81.3807 63.2432 81.6057C63.2432 81.8301 63.4259 82.0122 63.6513 82.0122Z" fill="#161616"/>
<path d="M48.1534 82.7869L47.7422 83.185V83.6981H50.2444V82.9918H48.9556C49.6398 82.3342 50.1605 81.7729 50.1605 81.0711C50.1605 80.4994 49.7874 79.9219 48.9539 79.9219C48.5575 79.9219 48.1776 80.0578 47.884 80.305L47.7898 80.3843L48.0757 81.0146L48.2407 80.878C48.3529 80.7843 48.5826 80.6282 48.8596 80.6282C49.2048 80.6282 49.3727 80.7921 49.3727 81.1271C49.3681 81.5654 49.0099 81.9752 48.1534 82.7869Z" fill="#161616"/>
<path d="M52.8432 79.9219C52.0242 79.9219 51.4951 80.6783 51.4951 81.851C51.5061 83.0256 52.0005 83.7554 52.7855 83.7554C53.6423 83.7554 54.1336 83.0438 54.1336 81.8022C54.1336 80.625 53.6512 79.9219 52.8432 79.9219ZM52.8117 83.0757C52.4905 83.0757 52.2829 82.5963 52.2829 81.8542C52.2829 81.0939 52.4925 80.6022 52.8169 80.6022C53.277 80.6022 53.3457 81.3671 53.3457 81.823C53.3457 82.1996 53.2936 83.0757 52.8117 83.0757Z" fill="#161616"/>
<path d="M56.7562 83.6975V79.9785H56.1588L55.2656 80.4546L55.4376 81.1304L55.9841 80.8364V83.6975H56.7562Z" fill="#161616"/>
<path d="M60.4495 81.0711C60.4495 80.4988 60.0764 79.9219 59.2429 79.9219C58.8465 79.9219 58.4666 80.0578 58.173 80.305L58.0788 80.3843L58.3647 81.0146L58.5297 80.878C58.6419 80.7843 58.8716 80.6282 59.1486 80.6282C59.4938 80.6282 59.6617 80.7921 59.6617 81.1271C59.6572 81.5654 59.2989 81.9752 58.4425 82.7869L58.0312 83.185V83.6981H60.5335V82.9918H59.2446C59.9287 82.3342 60.4495 81.7729 60.4495 81.0711Z" fill="#161616"/>
<path d="M5.91406 116.93H3.00781L2.99219 115.414H5.48438C5.91146 115.414 6.26823 115.354 6.55469 115.234C6.84115 115.115 7.05729 114.94 7.20312 114.711C7.35417 114.482 7.42969 114.203 7.42969 113.875C7.42969 113.51 7.35938 113.214 7.21875 112.984C7.08333 112.755 6.86979 112.589 6.57812 112.484C6.28646 112.375 5.91667 112.32 5.46875 112.32H3.70312V122H1.55469V110.625H5.46875C6.11458 110.625 6.6901 110.688 7.19531 110.812C7.70573 110.932 8.13802 111.12 8.49219 111.375C8.84635 111.63 9.11458 111.951 9.29688 112.336C9.48438 112.721 9.57812 113.18 9.57812 113.711C9.57812 114.18 9.46875 114.612 9.25 115.008C9.03646 115.398 8.70573 115.716 8.25781 115.961C7.8151 116.206 7.2526 116.346 6.57031 116.383L5.91406 116.93ZM5.82031 122H2.375L3.27344 120.312H5.82031C6.2474 120.312 6.59896 120.242 6.875 120.102C7.15625 119.961 7.36458 119.768 7.5 119.523C7.64062 119.273 7.71094 118.987 7.71094 118.664C7.71094 118.31 7.64844 118.003 7.52344 117.742C7.40365 117.482 7.21094 117.281 6.94531 117.141C6.6849 117 6.34115 116.93 5.91406 116.93H3.67969L3.69531 115.414H6.53906L7.03125 116C7.6875 116.005 8.22135 116.135 8.63281 116.391C9.04948 116.646 9.35677 116.974 9.55469 117.375C9.7526 117.776 9.85156 118.208 9.85156 118.672C9.85156 119.401 9.69271 120.013 9.375 120.508C9.0625 121.003 8.60417 121.375 8 121.625C7.40104 121.875 6.67448 122 5.82031 122ZM15.6562 113.547V122H13.5859V113.547H15.6562ZM18.4062 113.547V115.156H10.8828V113.547H18.4062ZM18.9688 117.859V117.695C18.9688 117.076 19.0573 116.505 19.2344 115.984C19.4115 115.458 19.6693 115.003 20.0078 114.617C20.3464 114.232 20.7604 113.932 21.25 113.719C21.7396 113.5 22.2969 113.391 22.9219 113.391C23.5573 113.391 24.1198 113.5 24.6094 113.719C25.1042 113.932 25.5208 114.232 25.8594 114.617C26.1979 115.003 26.4557 115.458 26.6328 115.984C26.8099 116.505 26.8984 117.076 26.8984 117.695V117.859C26.8984 118.474 26.8099 119.044 26.6328 119.57C26.4557 120.091 26.1979 120.547 25.8594 120.938C25.5208 121.323 25.1068 121.622 24.6172 121.836C24.1276 122.049 23.5677 122.156 22.9375 122.156C22.3125 122.156 21.7526 122.049 21.2578 121.836C20.763 121.622 20.3464 121.323 20.0078 120.938C19.6693 120.547 19.4115 120.091 19.2344 119.57C19.0573 119.044 18.9688 118.474 18.9688 117.859ZM21.0312 117.695V117.859C21.0312 118.229 21.0677 118.576 21.1406 118.898C21.2135 119.221 21.3255 119.505 21.4766 119.75C21.6276 119.995 21.8229 120.188 22.0625 120.328C22.3073 120.464 22.599 120.531 22.9375 120.531C23.2708 120.531 23.5573 120.464 23.7969 120.328C24.0365 120.188 24.2318 119.995 24.3828 119.75C24.5391 119.505 24.6536 119.221 24.7266 118.898C24.7995 118.576 24.8359 118.229 24.8359 117.859V117.695C24.8359 117.331 24.7995 116.99 24.7266 116.672C24.6536 116.349 24.5391 116.065 24.3828 115.82C24.2318 115.57 24.0339 115.375 23.7891 115.234C23.5495 115.089 23.2604 115.016 22.9219 115.016C22.5885 115.016 22.3021 115.089 22.0625 115.234C21.8229 115.375 21.6276 115.57 21.4766 115.82C21.3255 116.065 21.2135 116.349 21.1406 116.672C21.0677 116.99 21.0312 117.331 21.0312 117.695ZM30.4609 115.172V125.25H28.3906V113.547H30.3047L30.4609 115.172ZM35.8906 117.688V117.852C35.8906 118.466 35.8177 119.036 35.6719 119.562C35.5312 120.083 35.3229 120.539 35.0469 120.93C34.7708 121.315 34.4271 121.617 34.0156 121.836C33.6094 122.049 33.1406 122.156 32.6094 122.156C32.0885 122.156 31.6354 122.057 31.25 121.859C30.8646 121.656 30.5391 121.37 30.2734 121C30.0078 120.63 29.7943 120.201 29.6328 119.711C29.4766 119.216 29.3594 118.677 29.2812 118.094V117.57C29.3594 116.951 29.4766 116.388 29.6328 115.883C29.7943 115.372 30.0078 114.932 30.2734 114.562C30.5391 114.188 30.862 113.898 31.2422 113.695C31.6276 113.492 32.0781 113.391 32.5938 113.391C33.1302 113.391 33.6016 113.492 34.0078 113.695C34.4193 113.898 34.7656 114.19 35.0469 114.57C35.3281 114.951 35.5391 115.404 35.6797 115.93C35.8203 116.456 35.8906 117.042 35.8906 117.688ZM33.8203 117.852V117.688C33.8203 117.312 33.7865 116.966 33.7188 116.648C33.651 116.326 33.5469 116.044 33.4062 115.805C33.2656 115.56 33.0833 115.37 32.8594 115.234C32.6354 115.099 32.3646 115.031 32.0469 115.031C31.7292 115.031 31.4557 115.083 31.2266 115.188C30.9974 115.292 30.8099 115.44 30.6641 115.633C30.5182 115.826 30.4036 116.055 30.3203 116.32C30.2422 116.581 30.1901 116.87 30.1641 117.188V118.484C30.2109 118.87 30.3021 119.216 30.4375 119.523C30.5729 119.831 30.7708 120.076 31.0312 120.258C31.2969 120.44 31.6406 120.531 32.0625 120.531C32.3802 120.531 32.651 120.461 32.875 120.32C33.099 120.18 33.2812 119.987 33.4219 119.742C33.5625 119.492 33.6641 119.206 33.7266 118.883C33.7891 118.56 33.8203 118.216 33.8203 117.852ZM42.4375 110.625V122H40.2969V110.625H42.4375ZM45.9688 110.625V112.32H36.8047V110.625H45.9688ZM50.3047 122.156C49.6641 122.156 49.0885 122.052 48.5781 121.844C48.0677 121.635 47.6328 121.346 47.2734 120.977C46.9193 120.602 46.6458 120.167 46.4531 119.672C46.2656 119.172 46.1719 118.635 46.1719 118.062V117.75C46.1719 117.099 46.2656 116.508 46.4531 115.977C46.6406 115.44 46.9062 114.979 47.25 114.594C47.5938 114.208 48.0052 113.911 48.4844 113.703C48.9635 113.495 49.4922 113.391 50.0703 113.391C50.6693 113.391 51.1979 113.492 51.6562 113.695C52.1146 113.893 52.4974 114.174 52.8047 114.539C53.112 114.904 53.3438 115.341 53.5 115.852C53.6562 116.357 53.7344 116.917 53.7344 117.531V118.398H47.1094V116.977H51.7031V116.82C51.6927 116.492 51.6302 116.193 51.5156 115.922C51.401 115.646 51.224 115.427 50.9844 115.266C50.7448 115.099 50.4349 115.016 50.0547 115.016C49.7474 115.016 49.4792 115.083 49.25 115.219C49.026 115.349 48.8385 115.536 48.6875 115.781C48.5417 116.021 48.4323 116.307 48.3594 116.641C48.2865 116.974 48.25 117.344 48.25 117.75V118.062C48.25 118.417 48.2969 118.745 48.3906 119.047C48.4896 119.349 48.6328 119.612 48.8203 119.836C49.013 120.055 49.2422 120.227 49.5078 120.352C49.7786 120.471 50.0859 120.531 50.4297 120.531C50.862 120.531 51.2526 120.448 51.6016 120.281C51.9557 120.109 52.263 119.857 52.5234 119.523L53.5625 120.602C53.3854 120.862 53.1458 121.112 52.8438 121.352C52.5469 121.591 52.1875 121.786 51.7656 121.938C51.3438 122.083 50.8568 122.156 50.3047 122.156ZM56.7344 113.547L58.2422 116.234L59.7734 113.547H62.0156L59.5312 117.688L62.1172 122H59.875L58.2578 119.18L56.6328 122H54.3906L56.9688 117.688L54.5 113.547H56.7344ZM64.3047 110.625H66.1641L69.2734 119.188L72.375 110.625H74.2422L70.0156 122H68.5234L64.3047 110.625ZM63.3672 110.625H65.1875L65.5156 118.492V122H63.3672V110.625ZM73.3516 110.625H75.1797V122H73.0312V118.492L73.3516 110.625ZM79.2969 119.055L82.375 113.547H84.4453V122H82.375V116.484L79.2969 122H77.2266V113.547H79.2969V119.055ZM88.5234 113.547V122H86.4609V113.547H88.5234ZM94.0312 113.547L90.3047 118.734H88.1094L87.8516 116.844H89.375L91.4297 113.547H94.0312ZM91.5547 122L89.2422 118.375L90.9609 117.297L94.2969 122H91.5547ZM98.5859 120.531C98.8776 120.531 99.138 120.474 99.3672 120.359C99.5964 120.245 99.7786 120.083 99.9141 119.875C100.055 119.667 100.13 119.424 100.141 119.148H102.086C102.076 119.721 101.914 120.234 101.602 120.688C101.289 121.141 100.872 121.5 100.352 121.766C99.8359 122.026 99.2578 122.156 98.6172 122.156C97.9661 122.156 97.3984 122.047 96.9141 121.828C96.4297 121.609 96.026 121.305 95.7031 120.914C95.3854 120.523 95.1458 120.07 94.9844 119.555C94.8281 119.039 94.75 118.487 94.75 117.898V117.648C94.75 117.06 94.8281 116.508 94.9844 115.992C95.1458 115.477 95.3854 115.023 95.7031 114.633C96.026 114.242 96.4297 113.938 96.9141 113.719C97.3984 113.5 97.9635 113.391 98.6094 113.391C99.2917 113.391 99.8906 113.523 100.406 113.789C100.927 114.055 101.333 114.43 101.625 114.914C101.922 115.398 102.076 115.969 102.086 116.625H100.141C100.13 116.323 100.062 116.052 99.9375 115.812C99.8125 115.573 99.6354 115.38 99.4062 115.234C99.1771 115.089 98.8984 115.016 98.5703 115.016C98.2214 115.016 97.9297 115.089 97.6953 115.234C97.4661 115.38 97.2865 115.581 97.1562 115.836C97.0312 116.086 96.9427 116.367 96.8906 116.68C96.8438 116.987 96.8203 117.31 96.8203 117.648V117.898C96.8203 118.242 96.8438 118.57 96.8906 118.883C96.9427 119.195 97.0312 119.477 97.1562 119.727C97.2865 119.971 97.4661 120.167 97.6953 120.312C97.9297 120.458 98.2266 120.531 98.5859 120.531Z" fill="#161616"/>
</svg>
